REM DIRINDEX 1\3,1\4,1\5,1\6,1\2\7,1\2\8,1\2\9,1\2\10,1\2\11
REM DIRNAME folder01,folder02,folder03,folder04,folder05,folder06,folder07,folder08,folder09,folder10,folder11
TITLE ""
FILE "DISC5Track40.mp3" MP3
  TRACK 01 AUDIO
    TITLE "0:"
    INDEX 01 00:00:00
  TRACK 02 AUDIO
    TITLE "3:cjc021_5900"
    INDEX 01 00:00:25
  TRACK 03 AUDIO
    TITLE "0:"
    INDEX 01 00:01:30
  TRACK 04 AUDIO
    TITLE "4:cjc021_5901"
    INDEX 01 00:03:10
  TRACK 05 AUDIO
    TITLE "0:"
    INDEX 01 00:04:15
  TRACK 06 AUDIO
    TITLE "5:cjc021_5902"
    INDEX 01 00:04:52
  TRACK 07 AUDIO
    TITLE "0:"
    INDEX 01 00:07:17
  TRACK 08 AUDIO
    TITLE "3:cjc021_5903"
    INDEX 01 00:08:56
  TRACK 09 AUDIO
    TITLE "0:"
    INDEX 01 00:10:00
  TRACK 10 AUDIO
    TITLE "4:cjc021_5904"
    INDEX 01 00:11:48
  TRACK 11 AUDIO
    TITLE "0:"
    INDEX 01 00:12:69
  TRACK 12 AUDIO
    TITLE "5:cjc021_5905"
    INDEX 01 00:13:26
  TRACK 13 AUDIO
    TITLE "0:"
    INDEX 01 00:16:08
  TRACK 14 AUDIO
    TITLE "3:cjc021_5906"
    INDEX 01 00:17:45
  TRACK 15 AUDIO
    TITLE "0:"
    INDEX 01 00:18:60
  TRACK 16 AUDIO
    TITLE "4:cjc021_5907"
    INDEX 01 00:20:36
  TRACK 17 AUDIO
    TITLE "0:"
    INDEX 01 00:21:51
  TRACK 18 AUDIO
    TITLE "5:cjc021_5908"
    INDEX 01 00:22:13
  TRACK 19 AUDIO
    TITLE "0:"
    INDEX 01 00:24:69
  TRACK 20 AUDIO
    TITLE "3:cjc021_5909"
    INDEX 01 00:26:34
  TRACK 21 AUDIO
    TITLE "0:"
    INDEX 01 00:27:45
  TRACK 22 AUDIO
    TITLE "4:cjc021_5910"
    INDEX 01 00:29:23
  TRACK 23 AUDIO
    TITLE "0:"
    INDEX 01 00:30:32
  TRACK 24 AUDIO
    TITLE "5:cjc021_5911"
    INDEX 01 00:30:71
  TRACK 25 AUDIO
    TITLE "0:"
    INDEX 01 00:33:60
  TRACK 26 AUDIO
    TITLE "3:cjc021_5912"
    INDEX 01 00:35:21
  TRACK 27 AUDIO
    TITLE "0:"
    INDEX 01 00:36:48
  TRACK 28 AUDIO
    TITLE "4:cjc021_5913"
    INDEX 01 00:38:22
  TRACK 29 AUDIO
    TITLE "0:"
    INDEX 01 00:39:47
  TRACK 30 AUDIO
    TITLE "5:cjc021_5914"
    INDEX 01 00:40:05
  TRACK 31 AUDIO
    TITLE "0:"
    INDEX 01 00:42:53
  TRACK 32 AUDIO
    TITLE "3:cjc021_5915"
    INDEX 01 00:44:12
  TRACK 33 AUDIO
    TITLE "0:"
    INDEX 01 00:45:06
  TRACK 34 AUDIO
    TITLE "4:cjc021_5916"
    INDEX 01 00:46:54
  TRACK 35 AUDIO
    TITLE "0:"
    INDEX 01 00:47:48
  TRACK 36 AUDIO
    TITLE "5:cjc021_5917"
    INDEX 01 00:48:06
  TRACK 37 AUDIO
    TITLE "0:"
    INDEX 01 00:50:27
  TRACK 38 AUDIO
    TITLE "3:cjc021_5918"
    INDEX 01 00:51:63
  TRACK 39 AUDIO
    TITLE "0:"
    INDEX 01 00:53:09
  TRACK 40 AUDIO
    TITLE "4:cjc021_5919"
    INDEX 01 00:54:58
  TRACK 41 AUDIO
    TITLE "0:"
    INDEX 01 00:56:00
  TRACK 42 AUDIO
    TITLE "5:cjc021_5920"
    INDEX 01 00:56:37
  TRACK 43 AUDIO
    TITLE "0:"
    INDEX 01 00:58:15
  TRACK 44 AUDIO
    TITLE "3:cjc021_5921"
    INDEX 01 00:59:51
  TRACK 45 AUDIO
    TITLE "0:"
    INDEX 01 01:00:57
  TRACK 46 AUDIO
    TITLE "4:cjc021_5922"
    INDEX 01 01:02:34
  TRACK 47 AUDIO
    TITLE "0:"
    INDEX 01 01:03:39
  TRACK 48 AUDIO
    TITLE "5:cjc021_5923"
    INDEX 01 01:04:01
  TRACK 49 AUDIO
    TITLE "0:"
    INDEX 01 01:06:69
  TRACK 50 AUDIO
    TITLE "3:cjc021_5924"
    INDEX 01 01:08:31
  TRACK 51 AUDIO
    TITLE "0:"
    INDEX 01 01:09:36
  TRACK 52 AUDIO
    TITLE "4:cjc021_5925"
    INDEX 01 01:11:07
  TRACK 53 AUDIO
    TITLE "0:"
    INDEX 01 01:12:11
  TRACK 54 AUDIO
    TITLE "5:cjc021_5926"
    INDEX 01 01:12:46
  TRACK 55 AUDIO
    TITLE "0:"
    INDEX 01 01:14:45
  TRACK 56 AUDIO
    TITLE "3:cjc021_5927"
    INDEX 01 01:16:07
  TRACK 57 AUDIO
    TITLE "0:"
    INDEX 01 01:17:24
  TRACK 58 AUDIO
    TITLE "4:cjc021_5928"
    INDEX 01 01:19:01
  TRACK 59 AUDIO
    TITLE "0:"
    INDEX 01 01:20:18
  TRACK 60 AUDIO
    TITLE "5:cjc021_5929"
    INDEX 01 01:20:55
  TRACK 61 AUDIO
    TITLE "0:"
    INDEX 01 01:23:24
